<?xml version='1.0' encoding='utf-8'?>
<svg xmlns="http://www.w3.org/2000/svg" version="1.1" id="Layer_1" x="0px" y="0px" viewBox="0 0 500 500" style="enable-background:new 0 0 500 500;"> <style type="text/css"> .st0{fill:#0066D6;} .st1{fill:#1E4C4C;} .st2{opacity:0.5;} .st3{fill:#F8FBF7;} .st4{opacity:0.2;} .st5{fill:#1A7C7B;} .st6{fill:#FFFFFF;} .st7{opacity:0.3;} .st8{fill:#916D4D;} .st9{fill:#2C5353;} .st10{fill:#9AADAD;} .st11{fill:#94736A;} .st12{fill:#EFF0F0;} .st13{fill:#E2E4E4;} .st14{fill:#FEA511;} .st15{fill:#C8CBCB;} </style> <rect class="st0" width="500" height="500"/> <g> <g> <path class="st1" d="M112.3,363.6c0,1.4,55.4,2.5,123.8,2.5c68.3,0,123.8-1.1,123.8-2.5c0-1.4-55.4-2.5-123.8-2.5 C167.7,361.1,112.3,362.2,112.3,363.6z"/> </g> <g class="st2"> <path class="st1" d="M148.7,361.5h10.1V190.5H125l1.6,4.6c2.3,6.6,3.5,32,3.5,39.3v101.4C130,349.1,135.3,361.5,148.7,361.5z"/> </g> <g> <path class="st3" d="M354.2,177.2l-3.6-4h-0.1l-3.6,4l-3.6-4h-0.1l-3.6,4l-3.6-4h-0.1l-3.6,4l-3.6-4h-0.1l-3.6,4l-3.6-4h-0.1 l-3.6,4l-3.6-4H314l-3.6,4l-3.6-4h-0.1l-3.6,4l-3.6-4h-0.1l-3.6,4l-3.6-4h-0.1l-3.6,4l-3.6-4h-0.1l-3.6,4l-3.6-4h-0.1l-3.6,4 l-3.6-4h-0.1l-3.6,4l-3.6-4h-0.1l-3.6,4l-3.6-4h-0.1l-3.6,4l-3.6-4h-0.1l-3.6,4l-3.6-4H241l-3.6,4l-3.6-4h-0.1l-3.6,4l-3.6-4h-0.1 l-3.6,4l-3.6-4h-0.1l-3.6,4l-3.6-4h-0.1l-3.6,4l-3.6-4h-0.1l-3.6,4l-3.6-4h-0.1l-3.6,4l-3.6-4h-0.1l-3.6,4l-3.6-4h-0.1l-3.6,4 l-3.6-4h-0.1l-3.6,4l-3.6-4H168l-3.6,4l-3.6-4h-0.1l-3.6,4l-3.6-4l-0.2,18.2v120.7v31.1c0,16.6-12.4,18.1-12.4,18.1 c8.3,0,13.4,0.1,13.4,0.1h185.3c10,0,18.1-8.1,18.1-18.1V173.4L354.2,177.2z"/> </g> <g class="st4"> <g> <g> <path class="st1" d="M189.5,345.3c-0.2-7.1-2.2-13.6-2.2-13.6s-6,0-35.4,0V382c8.2,0,17.2,0,24,0c3.4-4.5,6-8.8,8-12.9 c1.4,0.5,2.9,0.8,4.5,0.8c6.9,0,12.5-5.5,12.5-12.4C200.8,351.2,195.9,345.9,189.5,345.3z M187.8,364.2c-0.6,0-1.2-0.1-1.7-0.2 c1.8-4.7,2.8-9.1,3.2-12.8c3,0.7,5.2,3.3,5.2,6.4C194.4,361.3,191.5,364.2,187.8,364.2z"/> </g> </g> </g> <g> <g> <path class="st5" d="M223.3,235.9h-6.6l-13.3-22.5l-0.1,0v22.5h-6.6v-33h6.6l13.3,22.5l0.1,0v-22.5h6.6V235.9z"/> </g> <g> <path class="st5" d="M249.7,221.4h-13.6v9.4h16v5.1h-22.6v-33H252v5.1h-15.9v8.3h13.6V221.4z"/> </g> <g> <path class="st5" d="M282.2,225.5h0.1l4.7-22.6h6.5l-7.7,33h-6.1l-6-21.8h-0.1l-6,21.8h-6.1l-7.7-33h6.5l4.7,22.6l0.1,0l6.2-22.6 h4.9L282.2,225.5z"/> </g> <g> <path class="st5" d="M315,227.3c0-1.3-0.4-2.3-1.3-3.1c-0.9-0.8-2.5-1.5-4.7-2.2c-3.9-1.1-6.9-2.5-8.9-4c-2-1.6-3-3.7-3-6.4 c0-2.7,1.2-4.9,3.5-6.6c2.3-1.7,5.2-2.6,8.8-2.6c3.6,0,6.6,1,8.9,2.9c2.3,1.9,3.4,4.3,3.3,7.1l0,0.1H315c0-1.5-0.5-2.8-1.5-3.7 c-1-0.9-2.4-1.4-4.3-1.4c-1.8,0-3.1,0.4-4.1,1.2c-1,0.8-1.5,1.8-1.5,3c0,1.1,0.5,2,1.6,2.8c1,0.7,2.8,1.5,5.4,2.3 c3.6,1,6.4,2.3,8.3,4c1.9,1.7,2.8,3.8,2.8,6.5c0,2.8-1.1,5-3.3,6.7c-2.2,1.6-5.2,2.4-8.8,2.4c-3.6,0-6.7-0.9-9.4-2.8 c-2.7-1.8-4-4.4-3.9-7.8l0-0.1h6.4c0,2,0.6,3.4,1.8,4.3c1.2,0.9,2.9,1.4,5,1.4c1.8,0,3.2-0.4,4.1-1.1 C314.5,229.5,315,228.5,315,227.3z"/> </g> </g> <g> <rect x="189.4" y="323" class="st5" width="65.4" height="5.4"/> </g> <g> <rect x="189.4" y="302.2" class="st5" width="65.4" height="5.4"/> </g> <g> <rect x="189.4" y="281.4" class="st5" width="65.4" height="5.4"/> </g> <g> <rect x="271.3" y="277.2" class="st5" width="58.9" height="56.5"/> </g> <g> <polygon class="st6" points="283.9,323 283.9,319.6 297.5,307.9 303.7,312.7 317.9,301.4 320.7,304.3 322.8,294.3 312.3,295.5 314.8,298.1 303.7,307 297.3,302.2 283.9,313.7 283.9,286.7 281.6,286.7 281.6,324.3 281.7,324.3 281.7,324.5 325.9,324.5 325.9,323 "/> </g> <g> <rect x="192.4" y="249.1" class="st5" width="141" height="2.9"/> </g> <g> <g> <g> <path class="st6" d="M335.8,125.7c0,0,0,0.7-0.2,1.8c-0.1,0.6-0.2,1.2-0.4,2c-0.2,0.8-0.4,1.6-0.7,2.6c-0.5,1.9-1.3,4-2.3,6.1 c-1,2.2-2.4,4.3-3.6,6.6c-1.2,2.2-2.4,4.5-3.5,6.6c-1.1,2.1-2.2,4-3.2,5.7c-1.9,3.3-3.1,5.5-3.1,5.5l-0.4-0.2c0,0,0.8-2.4,2.2-6 c0.7-1.8,1.4-3.9,2.3-6.1c0.8-2.2,1.8-4.6,2.7-7c0.9-2.4,1.7-4.8,2.6-7c1-2.2,2.1-4.1,3.2-5.7c0.5-0.8,1-1.5,1.5-2.2 c0.5-0.6,0.9-1.2,1.3-1.6c0.7-0.9,1.2-1.4,1.2-1.4L335.8,125.7z"/> </g> </g> </g> <g> <g> <g> <path class="st6" d="M238,95.2c0,0,0.3,0.7,0.6,2c0.2,0.6,0.3,1.4,0.5,2.3c0.2,0.9,0.4,1.9,0.5,2.9c0.2,1.1,0.3,2.2,0.4,3.5 c0.1,1.2,0.2,2.5,0.2,3.9c0,1.3-0.1,2.7-0.1,4.2c-0.1,1.4-0.1,2.9-0.2,4.3c-0.1,2.9-0.2,5.8-0.3,8.5c-0.1,2.7-0.2,5.2-0.3,7.4 c-0.2,4.3-0.4,7.2-0.4,7.2l-0.4,0c0,0-0.3-2.9-0.7-7.2c-0.2-2.2-0.4-4.7-0.6-7.4c-0.2-2.7-0.4-5.6-0.6-8.4 c-0.1-1.4-0.2-2.9-0.4-4.3c-0.1-1.4-0.3-2.8-0.3-4.2c0-1.3,0-2.7,0.1-3.9c0.1-1.2,0.2-2.4,0.3-3.5c0.1-1.1,0.3-2.1,0.4-3 c0.1-0.9,0.3-1.6,0.4-2.3c0.3-1.3,0.5-2,0.5-2L238,95.2z"/> </g> </g> </g> <g> <g> <g> <path class="st6" d="M400.4,186.6c0,0-1.2,1.2-3.3,2.6c-1,0.7-2.2,1.4-3.6,2.1c-1.4,0.6-2.9,1.1-4.4,1.8c-3,1.2-6,2.5-8.3,3.3 c-2.3,0.9-3.8,1.4-3.8,1.4l-0.1-0.2c0,0,1.4-0.8,3.5-2.1c2.1-1.2,5-2.8,7.8-4.4c1.4-0.8,2.8-1.7,4.2-2.3 c1.4-0.7,2.7-1.1,3.9-1.5c2.3-0.7,4.1-0.9,4.1-0.9L400.4,186.6z"/> </g> </g> </g> <g> <g> <g> <path class="st6" d="M98.6,176.7c0,0,1.6,0.6,3.7,2c1,0.7,2.2,1.5,3.3,2.5c1.1,1,2.2,2.3,3.4,3.4c2.3,2.3,4.6,4.6,6.3,6.4 c1.7,1.7,2.8,2.9,2.8,2.9l-0.2,0.2c0,0-1.3-1-3.3-2.4c-2-1.4-4.5-3.5-7.1-5.5c-1.3-1-2.6-1.9-3.8-2.9c-1.1-1-2.1-2.1-2.9-3 c-1.6-1.9-2.4-3.4-2.4-3.4L98.6,176.7z"/> </g> </g> </g> <g> <g> <g> <path class="st6" d="M154.8,120.6c0,0,0.5,0.4,1.3,1.3c0.4,0.4,0.9,0.9,1.4,1.5c0.5,0.6,1.1,1.3,1.6,2c1.2,1.5,2.4,3.3,3.5,5.4 c1.1,2.1,2,4.4,3.1,6.7c1.1,2.3,2.2,4.5,3.2,6.7c1,2.1,1.9,4.1,2.7,5.9c1.6,3.4,2.5,5.8,2.5,5.8l-0.4,0.2c0,0-1.4-2.1-3.5-5.2 c-1-1.6-2.3-3.4-3.5-5.4c-1.3-2-2.6-4.1-3.9-6.2c-1.3-2.1-2.8-4.2-4-6.2c-1.1-2.1-2-4.1-2.6-5.9c-0.3-0.9-0.6-1.7-0.8-2.5 c-0.2-0.7-0.4-1.4-0.5-2c-0.3-1.1-0.4-1.8-0.4-1.8L154.8,120.6z"/> </g> </g> </g> <g id="illustration_13_"> <g> <g> <g class="st7"> <path d="M253.4,395.6c0,0.8,11.3,1.5,25.2,1.5c13.9,0,25.2-0.7,25.2-1.5c0-0.8-11.3-1.5-25.2-1.5 C264.7,394.1,253.4,394.8,253.4,395.6z"/> </g> <g class="st7"> <path d="M330.4,395.6c0,0.8,11.3,1.5,25.2,1.5c13.9,0,14.7-0.7,14.7-1.5c0-0.8-0.7-1.5-14.7-1.5 C341.7,394.1,330.4,394.8,330.4,395.6z"/> </g> <g> <g> <polygon class="st8" points="254.1,362.1 378.9,361 378.9,356.3 254.1,357.3 254.1,362.1 "/> </g> <g> <path class="st8" d="M268.3,360.6c0,0-12.1,6.6-12,11.2c0.2,6.2,3,4.1,3,4.1s11-11.1,14.9-13.9c0.8-0.6-2.6-1.4-2.6-1.4 L268.3,360.6L268.3,360.6z"/> </g> <g> <path class="st8" d="M365.8,359.8c0,0,12.2,6.4,12.1,11c-0.1,6.2-2.9,4.1-2.9,4.1s-11.1-10.9-15.2-13.7 c-0.8-0.6,2.6-1.4,2.6-1.4L365.8,359.8L365.8,359.8z"/> </g> <g> <g> <path class="st9" d="M387.9,350.8l0.1,7.7c-6.5,2.1-6.7,16.6-6.7,16.6s-2.9,20.1-26.6,20.3c-27.5,0.2-31.6-25.4-32.6-29.7 c-0.9-3.7-4.2-4-5.1-4c-0.9,0-4.2,0.4-5,4.1c-1,4.3-4.6,30-32.1,30.2c-22.8,0.2-25.5-20-25.5-20s-2-14.4-8.5-16.4l-0.1-7.7 c0,0,6.2-3.1,24.3-3.2c18-0.2,28.5,2.4,28.5,2.4s13.3,2.6,18.3,2.6c5-0.1,18.3-3,18.3-3s10.4-2.7,28.5-2.9 C381.6,347.9,387.9,350.8,387.9,350.8L387.9,350.8z M290.6,352.9c0,0-8.8-2-21.9,0.3c-13.1,2.3-12.4,11.2-11.2,16.9 c1.1,5.7,2.5,23.1,24.5,22.2c8.2-0.6,21.2-6.2,25.2-23.2C310.3,355.3,290.6,352.9,290.6,352.9L290.6,352.9z M327.5,369 c4.2,16.9,17.3,22.3,25.5,22.8c22,0.5,23.1-16.9,24.2-22.6c1-5.8,1.7-14.7-11.5-16.7c-13.2-2.1-21.9,0-21.9,0 S324.1,355.2,327.5,369L327.5,369z"/> </g> </g> <g> <path class="st10" d="M302,356.9l-42.3,0.4c-1.4,1.4-2.1,3.1-2.5,4.8l8.7-0.1c1.4-0.9,2.4-1.4,2.4-1.4l3.3,0 c0,0,3.4,0.8,2.7,1.4l32.1-0.3C305.4,359.7,303.8,358.1,302,356.9L302,356.9z"/> </g> <g> <path class="st10" d="M271.6,360.5l-3.3,0c0,0-1,0.5-2.4,1.4c-2.7,1.6-6.8,4.5-8.6,7.2c0.1,0.3,0.1,0.6,0.2,0.9 c0.3,1.4,0.6,3.6,1.2,6c0.4-0.1,0.7-0.3,0.7-0.3s11-11.1,14.9-13.9l0,0C275.1,361.3,271.6,360.5,271.6,360.5L271.6,360.5z"/> </g> <g> <path class="st11" d="M280.6,352.1c-3.3,0-7.4,0.3-12,1.1c-9.8,1.7-11.8,7.1-11.8,12.1c0-1.1,0.1-2.1,0.3-3.2 c0.4-1.7,1.1-3.3,2.5-4.8c1.8-1.8,4.6-3.3,9-4.1C273.2,352.4,277.3,352.1,280.6,352.1c6.2-0.1,9.9,0.8,9.9,0.8 s6.5,0.8,11.4,4.1c1.8,1.2,3.4,2.7,4.4,4.7c0.7,1.3,1.1,2.8,1.1,4.4c-0.1-11.2-16.9-13.2-16.9-13.2S286.9,352,280.6,352.1 L280.6,352.1z"/> </g> <g> <g> <path class="st12" d="M359.8,361.2l-31.7,0.3c-0.6,1.3-1,2.8-1,4.5c0,0.9,0.1,2,0.4,3c4.2,16.9,17.3,22.3,25.5,22.8l0,0 c0.4,0,0.8,0,1.2,0l0,0c0,0,0,0,0,0c15.5-0.1,20-9.4,21.8-16.5c0,0,0,0-0.1,0c-0.5,0-1-0.3-1-0.3S363.9,364,359.8,361.2 C359.8,361.2,359.8,361.2,359.8,361.2L359.8,361.2z M377.3,361.1l-9.1,0.1c2.8,1.7,7.4,4.7,9.1,7.6c0.2-1.4,0.4-2.9,0.4-4.5 C377.7,363.2,377.6,362.1,377.3,361.1L377.3,361.1z M353.7,351.5C353.7,351.5,353.7,351.5,353.7,351.5 c-6.2,0.1-9.9,0.9-9.9,0.9l0,0c0,0-6.5,0.9-11.3,4.3l42.3-0.4c-1.8-1.8-4.7-3.3-9-3.9l0,0c-0.1,0-0.1,0-0.2,0 C361,351.7,357,351.4,353.7,351.5C353.7,351.5,353.7,351.5,353.7,351.5L353.7,351.5z"/> </g> </g> <g> <path class="st10" d="M374.7,356.3l-42.3,0.4c-1.8,1.2-3.4,2.8-4.4,4.8l31.7-0.3c-0.8-0.6,2.6-1.4,2.6-1.4l3.3,0 c0,0,1,0.5,2.4,1.4l9.1-0.1C376.9,359.4,376.1,357.7,374.7,356.3L374.7,356.3z"/> </g> <g> <path class="st10" d="M365.8,359.8l-3.3,0c0,0-3.4,0.8-2.6,1.4c0,0,0,0,0,0c4,2.8,15.2,13.7,15.2,13.7s0.5,0.3,1,0.3 c0,0,0,0,0.1,0c0.6-2.5,0.9-4.6,1.1-6.1c0-0.1,0-0.3,0.1-0.4c-1.7-2.8-6.2-5.9-9.1-7.6C366.8,360.3,365.8,359.8,365.8,359.8 L365.8,359.8z"/> </g> <g> <path class="st11" d="M354.3,391.8C354.3,391.8,354.3,391.8,354.3,391.8L354.3,391.8C354.3,391.8,354.3,391.8,354.3,391.8 L354.3,391.8z M353.1,391.8c0.4,0,0.8,0,1.2,0C353.9,391.8,353.5,391.8,353.1,391.8L353.1,391.8z M365.7,352.4L365.7,352.4 c4.4,0.7,7.2,2.1,9,3.9c1.4,1.4,2.2,3,2.6,4.7c0.3,1,0.4,2.1,0.4,3.2C377.7,359.2,375.5,353.9,365.7,352.4L365.7,352.4 L365.7,352.4z M343.8,352.4L343.8,352.4c0,0-16.8,2.4-16.7,13.5c0-1.7,0.4-3.2,1-4.5c1-2,2.6-3.5,4.4-4.8 C337.4,353.3,343.8,352.4,343.8,352.4L343.8,352.4L343.8,352.4z M353.7,351.5c3.3,0,7.3,0.2,11.8,0.9 C361,351.7,357,351.4,353.7,351.5L353.7,351.5z M353.7,351.5C353.7,351.5,353.7,351.5,353.7,351.5 C353.7,351.5,353.7,351.5,353.7,351.5L353.7,351.5L353.7,351.5z"/> </g> <g> <path class="st13" d="M331.2,374.7l28.7-13.5l16.2,14c0,0-3.5,15.6-20,16.3C339.5,392.2,334.4,381.4,331.2,374.7z"/> </g> <g> <path class="st14" d="M385.7,352.3c0,0.5-0.8,0.9-1.8,0.9c-1,0-1.8-0.4-1.8-0.9c0-0.5,0.8-0.9,1.8-0.9 C384.9,351.4,385.7,351.8,385.7,352.3z"/> </g> <g> <path class="st14" d="M252.7,354c0,0.5-0.8,0.9-1.8,0.9c-1,0-1.8-0.4-1.8-0.9s0.8-0.9,1.8-0.9 C251.9,353,252.7,353.5,252.7,354z"/> </g> <g> <g> <path class="st15" d="M290.6,352.9c0,0-3.7-0.8-9.9-0.8c-3.3,0-7.4,0.3-12,1.1c-4.3,0.8-7.2,2.3-9,4.1l42.3-0.4 C297.1,353.7,290.6,352.9,290.6,352.9z"/> </g> <g> <path class="st15" d="M265.9,362l-8.7,0.1c-0.2,1-0.3,2.1-0.3,3.2c0,1.4,0.2,2.7,0.4,4C259.1,366.5,263.3,363.6,265.9,362z"/> </g> <g> <path class="st12" d="M261.4,382.9c3,5.1,8.6,9.6,19.3,9.5c0.4,0,0.8,0,1.2,0c5.4-0.4,12.8-3,18.4-9.5H261.4z"/> </g> <g> <path class="st12" d="M307.1,369.1c0.3-1.1,0.4-2.1,0.4-3c0-1.7-0.4-3.2-1.1-4.4l-32.1,0.3l0,0c-3.9,2.8-14.9,13.9-14.9,13.9 s-0.3,0.2-0.7,0.3c0.6,2.1,1.4,4.5,2.7,6.7h39C303.3,379.5,305.8,375,307.1,369.1z"/> </g> </g> </g> </g> <g> <g class="st7"> <path d="M113.1,393.5c0,0.9,18.4,1.7,41.2,1.7s41.2-0.8,41.2-1.7c0-0.9-18.4-1.7-41.2-1.7S113.1,392.6,113.1,393.5z"/> </g> <g> <g> <path class="st6" d="M142.7,336.7c0-0.1-0.5-2.4-0.1-7.1c0.3-3.1,0.2-4.8,0.1-5.5h-31.4c-3.9,0-7.1-3.2-7.1-7.1v-2.3 c0-3.9,3.2-7.1,7.1-7.1h31.9c3.3,0,5.9-2.7,5.9-5.9v-1.2c0-3.3-2.7-5.9-5.9-5.9h-15.4c-3.9,0-7.1-3.2-7.1-7.1 c0-3.7,3-6.7,6.7-6.7c2.6,0,4.8-2.2,4.8-4.8v-0.4h1.2v0.4c0,3.3-2.7,5.9-5.9,5.9c-3.1,0-5.6,2.5-5.6,5.6 c0,3.3,2.7,5.9,5.9,5.9h15.4c3.9,0,7.1,3.2,7.1,7.1v1.2c0,3.9-3.2,7.1-7.1,7.1h-31.9c-3.3,0-5.9,2.7-5.9,6v2.3 c0,3.3,2.7,5.9,5.9,5.9h32.3l0.1,0.4c0,0.1,0.4,1.7,0,6.3c-0.4,4.5,0,6.7,0.1,6.8L142.7,336.7z"/> </g> <g> <path class="st6" d="M175.2,355.9c-0.2-7.1-2.2-13.6-2.2-13.6s-6,0-35.4,0v50.3c8.2,0,17.2,0,24,0c3.4-4.5,6-8.8,8-12.9 c1.4,0.5,2.9,0.8,4.5,0.8c6.9,0,12.5-5.5,12.5-12.4C186.5,361.7,181.5,356.4,175.2,355.9z M173.4,374.8 c-0.6,0-1.2-0.1-1.7-0.2c1.8-4.7,2.8-9.1,3.2-12.8c3,0.7,5.2,3.3,5.2,6.4C180.1,371.9,177.1,374.8,173.4,374.8z"/> </g> <g> <path class="st6" d="M100.9,342.3c-4.7,42.1,16.4,50.4,16.4,50.4s9.3,0,20.3-0.1v-50.3C128,342.3,116,342.3,100.9,342.3z"/> </g> <g> <path class="st6" d="M99.3,345.2h75.6c0.2,0,0.3-0.1,0.3-0.3v-3.4c0-0.2-0.1-0.3-0.3-0.3H99.3c-0.2,0-0.3,0.1-0.3,0.3v3.4 C98.9,345,99.1,345.2,99.3,345.2z"/> </g> </g> <g> <path class="st6" d="M113.7,392.8H162c0.1,0,0.2-0.1,0.2-0.2v-2.1c0-0.1-0.1-0.2-0.2-0.2h-48.3c-0.1,0-0.2,0.1-0.2,0.2v2.1 C113.5,392.7,113.6,392.8,113.7,392.8z"/> </g> </g> </g> </g> </g> </svg>